<?xml version="1.0" encoding="utf-8"?>
<!-- Generator: Adobe Illustrator 22.0.1, SVG Export Plug-In . SVG Version: 6.00 Build 0)  -->
<svg version="1.1" id="Слой_1" xmlns="http://www.w3.org/2000/svg" xmlns:xlink="http://www.w3.org/1999/xlink" x="0px" y="0px"
	 viewBox="0 0 50 50" style="enable-background:new 0 0 50 50;" xml:space="preserve">
<style type="text/css">
	.st0{fill:#FFFFFF;}
	.st1{fill:#0364B2;}
</style>
<ellipse class="st0" cx="26" cy="26" rx="22.8" ry="23.1"/>
<ellipse class="st1" cx="23.9" cy="25.1" rx="22.8" ry="23.1"/>
<path class="st0" d="M32.5,7.8c-2.9,0-5.2-0.1-6.9-0.1c-0.7,0-0.9,0-1.2,0c-2.7,0.3-5.2,2.9-5.5,5.5c-0.1,0.6,0.1,0.5,0.1,2.7
	c0,1.2,0,2.2-0.1,2.9c-1.2,0-2.4,0-3.7,0v6.3h3.6v17.4h7.8V25.1h5.1l0.6-6.2c-2,0-3.9,0-5.9,0c0-0.6-0.1-1.4,0-2.4
	c0.1-1.6,0.3-2,0.4-2.2c0.7-0.8,2-0.7,2.5-0.6c1,0,2,0,3,0V7.8z"/>
</svg>
