<?xml version="1.0" encoding="utf-8"?>
<!-- Generator: Adobe Illustrator 22.0.1, SVG Export Plug-In . SVG Version: 6.00 Build 0)  -->
<svg version="1.1" id="Слой_1" xmlns="http://www.w3.org/2000/svg" xmlns:xlink="http://www.w3.org/1999/xlink" x="0px" y="0px"
	 viewBox="0 0 50 50" style="enable-background:new 0 0 50 50;" xml:space="preserve">
<style type="text/css">
	.st0{fill:#FFFFFF;}
	.st1{fill:#0364B2;}
</style>
<ellipse class="st0" cx="26" cy="26" rx="22.8" ry="23.1"/>
<ellipse class="st1" cx="23.9" cy="25.1" rx="22.8" ry="23.1"/>
<path class="st0" d="M18.3,16.6c0-0.4,0.8-0.8,0.9-0.8c0.3-0.2,0.6-0.2,1.4-0.3c0.6-0.1,0.9-0.1,1.3-0.1c2-0.1,3.4-0.1,3.9,0.8
	c0.2,0.5,0.2,1,0.2,1.4c-0.1,2-0.5,7.7,0.4,8.3c0.3,0.2,0.7-0.2,1.2-0.8c0.8-0.8,1.4-1.9,2.4-4.6c0.9-2.5,1-3.4,1.8-3.9
	c0.4-0.3,0.7-0.3,1.7-0.2c4.3,0.1,4.5,0.1,4.7,0.4c0.6,1.1-0.8,3.5-2.4,6.4c-1.6,2.9-2.4,3.4-2.3,4.7c0.1,1.3,1.1,1.5,2.9,4
	c0.7,1,2.4,3.5,1.8,4.6c-0.2,0.3-0.4,0.4-2.8,0.4c-3.1,0-3.5-0.1-3.9-0.3c-0.3-0.2-1-1-2.3-2.6c-1.3-1.6-1.8-2.2-2.2-2
	c-0.5,0.2-0.7,1.3-0.8,1.6c-0.1,0.5,0,0.7-0.2,1.4c-0.1,0.4-0.2,1-0.3,1.2c-0.4,1.1-3.2,1.2-5.9-0.1c-2.4-1.2-3.8-3.2-5.4-5.4
	c-1.3-1.8-2.1-3.5-3.6-6.8c-2.8-6.1-2.4-6.9-2.3-7.2c0.2-0.3,0.4-0.2,2.1-0.2c3,0.1,3.2-0.1,3.7,0.2c1,0.7,0.7,1.7,1.8,4.4
	c1,2.4,2.6,5.1,3.4,4.8c0.4-0.2,0.5-1.1,0.6-2c0.1-0.7,0.1-1.3,0.1-2c-0.1-2.8-0.2-4.2-0.7-4.7C18.9,16.7,18.3,16.9,18.3,16.6z"/>
</svg>
