<?xml version="1.0" encoding="utf-8"?>
<!-- Generator: Adobe Illustrator 22.0.1, SVG Export Plug-In . SVG Version: 6.00 Build 0)  -->
<svg version="1.1" id="Слой_1" xmlns="http://www.w3.org/2000/svg" xmlns:xlink="http://www.w3.org/1999/xlink" x="0px" y="0px"
	 viewBox="0 0 50 50" style="enable-background:new 0 0 50 50;" xml:space="preserve">
<style type="text/css">
	.st0{fill:#FFFFFF;}
	.st1{fill:#0364B2;}
</style>
<ellipse class="st0" cx="26" cy="26" rx="22.8" ry="23.1"/>
<ellipse class="st1" cx="23.9" cy="25.1" rx="22.8" ry="23.1"/>
<path class="st0" d="M13.1,11.4V39c5.9,0.1,11,0,15.1,0c1,0,2.9,0,4.9-0.9c1-0.4,3.3-1.4,4.6-3.7c1.4-2.4,1.8-6-0.1-8
	c-0.8-0.8-2.2-1.7-3.9-2.1c-0.9-0.2-1.9-0.2-1.9-0.4c0-0.2,0.4-0.3,1-0.6c0,0,1.2-0.6,2.3-1.5c1.4-1.2,1.7-3.6,1.3-5.3
	c-0.4-2-1.7-3.2-2.1-3.6c-2.4-2.1-5.5-1.8-6-1.7C23.3,11.2,18.2,11.3,13.1,11.4z"/>
<path class="st0" d="M67.6,10.3"/>
<path class="st1" d="M19,14.9v2.8v4.1c1.2,0,2.9,0,4.8,0c2.8,0,3.4,0,3.7-0.1c0.1,0,0.1,0,0.1,0c1.9-0.7,2.3-5.2,0.3-6.5
	c-0.5-0.4-1-0.4-3.2-0.4C22.4,14.8,20.5,14.9,19,14.9z"/>
<path class="st1" d="M19,27.4v3v4.3c1.5,0,3.5,0,5.9,0c3.5,0,4.2,0,4.6-0.1c0.1,0,0.1,0,0.1,0c2.3-0.8,2.8-5.4,0.3-6.8
	c-0.6-0.4-1.3-0.4-3.9-0.4C23.3,27.3,20.9,27.3,19,27.4z"/>
</svg>
